<?xml version="1.0" encoding="iso-8859-1"?>
<!-- Uploaded to: SVG Repo, www.svgrepo.com, Generator: SVG Repo Mixer Tools -->
<svg version="1.1" id="Layer_1" xmlns="http://www.w3.org/2000/svg" xmlns:xlink="http://www.w3.org/1999/xlink" 
	 viewBox="0 0 512 512" xml:space="preserve">
<path style="fill:#EDEDED;" d="M512,454.4c0,21.207-17.193,38.4-38.4,38.4H38.4C17.193,492.8,0,475.607,0,454.4V57.6
	c0-21.207,17.193-38.4,38.4-38.4h435.2c21.207,0,38.4,17.193,38.4,38.4V454.4z"/>
<path style="fill:#D8D8DA;" d="M473.6,19.2H256v473.6h217.6c21.207,0,38.4-17.193,38.4-38.4V57.6
	C512,36.393,494.807,19.2,473.6,19.2z"/>
<rect x="256" y="57.6" style="fill:#C6C5CA;" width="217.6" height="38.4"/>
<g>
	<circle style="fill:#E07188;" cx="57.6" cy="76.8" r="25.6"/>
	<path style="fill:#E07188;" d="M0,134.4v320c0,21.207,17.193,38.4,38.4,38.4h435.2c21.207,0,38.4-17.193,38.4-38.4v-320H0z"/>
</g>
<path style="fill:#E02753;" d="M256,134.4v358.4h217.6c21.207,0,38.4-17.193,38.4-38.4v-320H256z"/>
<g>
	<path style="fill:#F8F8F9;" d="M435.2,390.4H164.077c-4.511-3.971-10.409-6.4-16.877-6.4s-12.365,2.429-16.877,6.4H76.8v38.4
		h53.524c4.509,3.968,10.405,6.397,16.869,6.4h0.006c6.29,0,12.216-2.276,16.892-6.4H435.2V390.4z"/>
	<polygon style="fill:#F8F8F9;" points="217.6,192 217.6,345.6 320,268.8 	"/>
</g>
<g>
	<rect x="256" y="390.4" style="fill:#EDEDED;" width="179.2" height="38.4"/>
	<polygon style="fill:#EDEDED;" points="256,220.8 256,316.8 320,268.8 	"/>
</g>
</svg>